<?xml version="1.0" encoding="utf-8"?>
<svg fill="current" version="1.1" id="Layer_1" xmlns="http://www.w3.org/2000/svg" xmlns:xlink="http://www.w3.org/1999/xlink" x="0px" y="0px"
	 viewBox="0 0 494.23 578.14" style="enable-background:new 0 0 494.23 578.14;" xml:space="preserve">
<path id="XMLID_50_" class="st0" d="M364.13,29.51c-7.72-4.18-15.7-7.95-23.88-11.29c-2.9-1.19-5.81-2.31-8.76-3.38
	C305.14,5.24,276.73,0,247.11,0s-58.03,5.24-84.37,14.84c-1.53,0.55-3.04,1.12-4.55,1.71c-0.34,0.12-0.66,0.25-1,0.39
	c-1.3,0.5-2.58,1.01-3.84,1.53c-1.49,0.62-2.99,1.24-4.46,1.88c-0.66,0.28-1.33,0.59-1.99,0.89c-1.23,0.53-2.44,1.08-3.66,1.65
	c-0.09,0.04-0.16,0.07-0.25,0.12c-1.3,0.6-2.6,1.21-3.88,1.85c-2.22,1.07-4.41,2.19-6.58,3.32c-0.04,0.02-0.09,0.05-0.12,0.07
	c-2.6,1.46-4.98,5.35-6.45,7.82c-5.6,9.37-5.96,21.08-1.83,31.08c2.97,7.18,8.23,12.32,13.62,17.72c0.05,0.04,0.09,0.09,0.12,0.12
	l90.26,90.29c0,0,66.61,66.69,66.61,66.7c11.34,9.24,18.6,23.32,18.6,39.09c0,27.86-22.6,50.44-50.45,50.44
	c-27.84,0-50.44-22.58-50.44-50.44c0-14.2,5.9-27.06,15.34-36.21l-43.34-42.79c-8.55,8.48-15.77,18.38-21.19,29.28
	c-7.5,14.95-11.72,31.86-11.72,49.73c0,61.49,49.85,111.36,111.34,111.36c61.49,0,111.34-49.87,111.34-111.36
	c0-29.53-11.47-56.34-30.22-76.25l-4.04-4.09l-0.27-0.27L199.13,57.53c4.27-1.1,8.6-2.04,13-2.83c11.34-2.06,23.04-3.15,34.99-3.15
	c18.28,0,35.96,2.52,52.75,7.24c8.91,2.49,17.55,5.6,25.88,9.28c68.78,30.33,116.93,99.18,116.93,179.04
	c0,93.65-66.19,172.14-154.24,191.15c-13.32,2.9-27.15,4.41-41.32,4.41c-1.71,0-3.41-0.02-5.1-0.07l-55.75,44.05l-15.8,12.48v-17.08
	v-55.04c-18.9-8.09-36.27-19.06-51.56-32.37c-41.24-35.88-67.34-88.71-67.34-147.52c0-58.4,25.74-110.9,66.47-146.76
	c-5.81-5.87-12.55-13.16-16.89-23.68c-3.38-8.16-4.91-16.82-4.64-25.35C37.85,96.55,0,167.49,0,247.11
	c0,89.35,47.66,167.77,118.9,211.18v94.06c0,9.87,5.65,18.88,14.54,23.2c3.57,1.72,7.41,2.58,11.24,2.58
	c5.69,0,11.34-1.9,15.98-5.56l99.59-78.69c130.19-6.86,233.98-114.92,233.98-246.78C494.23,153.16,441.53,71.27,364.13,29.51z"/>
</svg>
